<svg xmlns="http://www.w3.org/2000/svg" 
	xmlns:xlink="http://www.w3.org/1999/xlink" 
	width="1000px" height="500px" viewBox="0 0 1000 500" zoomAndPan="disable" preserveAspectRatio="none">

    <style type="text/css"><![CDATA[
		path {
			stroke: rgba(255, 255, 255, 0.05);
			stroke-width: 2px;
			fill: none;
		}
    ]]></style>

	<!-- Líneas curvas usando path -->
	<path d="M150,0 C-200,200, -400,400, -850,500" />
	<path d="M700,0 C500,200, -100,400, -300,500" />
	<path d="M1150,0 C950,200, 50,400, 150,500" />
	<path d="M1500,0 C1300,200, 200,400, 500,500" />
	<path d="M1750,0 C1600,200, 450,400, 750,500" />

	<path d="M1100,500 C950,200, 750,-200, 750,-500" />
	<path d="M1100,500 C900,200, 500,-200, 300,-500" />
	<path d="M1100,500 C850,200, 400,-200, -250,-500" />
	<path d="M1100,500 C850,200, 200,-200, -1000,-500" />
	<path d="M1100,500 C850,200, -200,-200, -1000,-100" />
	<path d="M1100,500 C850,200, -200,-200, -1000,250" />
</svg>
